# xmcd CD database file
#
# Track frame offsets:
#	150
#	16317
#	34652
#	56372
#	80040
#	96032
#	115585
#	133172
#	147897
#	161077
#	177762
#	194297
#	211690
#
# Disc length: 3039 seconds
#
# Revision: 2
# Processed by: cddbd v1.4PL0 Copyright (c) Steve Scherf et al.
# Submitted via: CDex 1.50
#
DISCID=a70bdd0d
DTITLE=Deborah Henson-Conant - The Celtic Album
DYEAR=1999
DGENRE=Celtic
TTITLE0=The Ash Grove
TTITLE1=Comin' Through the Rye
TTITLE2=The Drunken Sailor
TTITLE3=Siobeg Siomor - Ye Banks and Braes - Planxty Irwin
TTITLE4=Slieve Russell
TTITLE5=All Through the Night - Kira's lullabye
TTITLE6=Off She Goes and She's Gone
TTITLE7=She Moved Through the Fair
TTITLE8=Gussie's Great Escape
TTITLE9=Loch Lomond
TTITLE10=The Mason's Apron
TTITLE11=My Love is Like a Red, Red Rose
TTITLE12=St. Anne's Reel - Here in the Sun
EXTD=Website - www.hipharp.com YEAR: 1999
EXTT0=
EXTT1=
EXTT2=
EXTT3=
EXTT4=
EXTT5=
EXTT6=
EXTT7=
EXTT8=
EXTT9=
EXTT10=
EXTT11=
EXTT12=
PLAYORDER=
